<svg width="24" height="24" viewBox="0 0 24 24" fill="none" xmlns="http://www.w3.org/2000/svg">
<path d="M23.611 8.70886L12.611 0.208858C12.436 0.0737646 12.2211 0.000488281 12 0.000488281C11.7789 0.000488281 11.564 0.0737646 11.389 0.208858L0.389 8.70886C0.268036 8.80222 0.170076 8.92206 0.102642 9.05918C0.0352093 9.1963 9.63811e-05 9.34705 0 9.49986L0 22.9999C0 23.2651 0.105357 23.5194 0.292893 23.707C0.48043 23.8945 0.734784 23.9999 1 23.9999H23C23.2652 23.9999 23.5196 23.8945 23.7071 23.707C23.8946 23.5194 24 23.2651 24 22.9999V9.49986C23.9999 9.34705 23.9648 9.1963 23.8974 9.05918C23.8299 8.92206 23.732 8.80222 23.611 8.70886Z" fill="#999999"/>
</svg>
