<svg width="80" height="80" viewBox="0 0 80 80" fill="none" xmlns="http://www.w3.org/2000/svg">
<path d="M33.3333 60H46.6667" stroke="black" stroke-width="6" stroke-linecap="round" stroke-linejoin="round"/>
<path d="M56.5967 10H23.4033C21.5633 10 20.07 11.4933 20.07 13.3333V21.26C20.07 22.6633 20.5133 24.0333 21.3367 25.17L32.07 40L21.3367 54.83C20.5133 55.9667 20.07 57.3367 20.07 58.74V66.6667C20.07 68.5067 21.5633 70 23.4033 70H56.5933C58.4333 70 59.9267 68.5067 59.9267 66.6667V58.86C59.9267 57.38 59.4333 55.9433 58.5267 54.7733L47.07 40L58.53 25.2233C59.4367 24.0533 59.93 22.6167 59.93 21.1367V13.3333C59.93 11.4933 58.4367 10 56.5967 10V10Z" stroke="black" stroke-width="6" stroke-linecap="round" stroke-linejoin="round"/>
</svg>
